<?xml version="1.0" encoding="UTF-8"?>
<svg version="1.1" xmlns="http://www.w3.org/2000/svg" width="225" height="225">
<path d="M0 0 C74.25 0 148.5 0 225 0 C225 74.25 225 148.5 225 225 C150.75 225 76.5 225 0 225 C0 150.75 0 76.5 0 0 Z " fill="#3CB4E6" transform="translate(0,0)"/>
<path d="M0 0 C74.25 0 148.5 0 225 0 C225 30.36 225 60.72 225 92 C224.67 92 224.34 92 224 92 C223.76925781 91.05640625 223.53851563 90.1128125 223.30078125 89.140625 C218.96783677 71.88569637 211.88969592 56.45714095 200.8203125 42.4609375 C199 40 199 40 198 37 C197.34 37 196.68 37 196 37 C196.06380859 38.30710937 196.06380859 38.30710937 196.12890625 39.640625 C195.76211231 49.19949745 189.64243115 57.65020496 184 65 C186.3625494 66.90528177 188.72821607 68.79702213 191.16015625 70.61328125 C198.00988387 75.77058869 203.40807612 80.5042495 206 89 C206.49713579 96.83719947 203.18934697 104.02090997 198.359375 110.046875 C192.72248789 115.98845871 187.95508838 119.19419008 179.6875 119.5625 C166.81869656 119.04892176 158.4634683 110.94322886 150 102 C148.625 99.62890625 148.625 99.62890625 148 98 C147.78515747 101.88607471 147.78515747 101.88607471 149 104.9375 C150.71471548 110.44391026 150.15425964 116.3009633 150 122 C147.56412127 119.80632513 146.27807636 117.82130477 145 114.8125 C144.690625 114.09707031 144.38125 113.38164063 144.0625 112.64453125 C142.64590636 109.11867135 141.32389148 105.5617194 140 102 C139.56300781 103.66675781 139.56300781 103.66675781 139.1171875 105.3671875 C133.12100144 127.43841376 133.12100144 127.43841376 124 133 C115.80299513 137.04802826 106.79550792 137.60285494 97.94921875 135.15625 C92.02248437 132.49416597 88.19295968 128.63186246 85 123 C82.00656212 114.01968636 83.74642791 104.9934699 87.61328125 96.62109375 C88.98898135 94.0208268 90.45616672 91.50363579 92 89 C91.175 89.103125 90.35 89.20625 89.5 89.3125 C84.68202174 88.88232337 81.85167337 86.78994449 78 84 C76.989375 83.278125 75.97875 82.55625 74.9375 81.8125 C66.15661499 74.1500475 58.42561395 60.31622137 56.6640625 48.8046875 C56.59486287 45.3862256 56.69915163 43.40829421 58.75 40.625 C65.95171208 35.4237635 73.76679907 36.37963228 82.328125 37.39453125 C96.0817503 39.92037476 115.86428812 45.86428812 126 56 C126.66 53.03 127.32 50.06 128 47 C132 47 132 47 133.484375 48.3125 C134.65625 49.875 135.828125 51.4375 137 53 C137.97967076 51.60452042 138.9586886 50.20858248 139.9375 48.8125 C140.57816406 47.89984375 141.21882812 46.9871875 141.87890625 46.046875 C143.31593332 43.98263722 144.74006729 41.90937453 146.15234375 39.828125 C151.09388897 32.56778791 156.32655412 25.71595528 162 19 C163.02147805 17.77136906 164.04244506 16.54231271 165.0625 15.3125 C166.0215625 14.1678125 166.0215625 14.1678125 167 13 C166.45255127 12.81896729 165.90510254 12.63793457 165.34106445 12.45141602 C161.41915573 11.14996608 157.50452978 9.83335329 153.60546875 8.46484375 C152.87650391 8.21283203 152.14753906 7.96082031 151.39648438 7.70117188 C149.93307228 7.19525311 148.47206826 6.68231006 147.01367188 6.16210938 C136.08678329 2.42371038 125.23835289 1.63588401 113.75 1.6875 C111.83682983 1.69378418 111.83682983 1.69378418 109.88500977 1.70019531 C100.56517564 1.81176034 91.99695557 2.52288827 83 5 C81.99066406 5.26683594 80.98132813 5.53367187 79.94140625 5.80859375 C65.52586863 10.11602531 52.78873527 17.81781926 41 27 C40.18015625 27.63421875 39.3603125 28.2684375 38.515625 28.921875 C23.35636393 41.50083632 12.03068375 60.4197284 6 79 C5.68458252 79.95422852 5.68458252 79.95422852 5.36279297 80.92773438 C-0.67558608 100.14727814 -0.42988178 123.65467219 5 143 C5.32871094 144.216875 5.65742187 145.43375 5.99609375 146.6875 C14.79608637 175.91930939 34.71561256 198.52716995 61.1875 213.1875 C70.9729131 218.40870581 81.98438142 222.48600503 93 224 C93 224.33 93 224.66 93 225 C62.31 225 31.62 225 0 225 C0 150.75 0 76.5 0 0 Z " fill="#FDFEFE" transform="translate(0,0)"/>
<path d="M0 0 C0.33 0 0.66 0 1 0 C1 29.7 1 59.4 1 90 C-29.36 90 -59.72 90 -91 90 C-91 89.67 -91 89.34 -91 89 C-90.2471875 88.85304688 -89.494375 88.70609375 -88.71875 88.5546875 C-68.66149635 84.31929656 -50.20618182 75.94091707 -35 62 C-34.07574219 61.15695313 -33.15148437 60.31390625 -32.19921875 59.4453125 C-15.9592746 43.94661062 -3.83035628 22.27770435 0 0 Z " fill="#FDFEFE" transform="translate(224,135)"/>
<path d="M0 0 C3.63 0 7.26 0 11 0 C12.32 6.6 13.64 13.2 15 20 C16.50926897 15.47219308 17.66114467 11.26903024 18.625 6.625 C18.88539062 5.37976563 19.14578125 4.13453125 19.4140625 2.8515625 C19.70410156 1.44003906 19.70410156 1.44003906 20 0 C23.63 0 27.26 0 31 0 C31 11.55 31 23.1 31 35 C28.69 35 26.38 35 24 35 C23.505 25.1 23.505 25.1 23 15 C21.68 21.6 20.36 28.2 19 35 C17.02 35 15.04 35 13 35 C12.53916965 33.50076525 12.08149574 32.00056026 11.625 30.5 C11.36976562 29.6646875 11.11453125 28.829375 10.8515625 27.96875 C9.8099395 24.33740377 8.91624727 20.66498907 8 17 C7.67 22.94 7.34 28.88 7 35 C4.69 35 2.38 35 0 35 C0 23.45 0 11.9 0 0 Z " fill="#F4FAFD" transform="translate(85,152)"/>
<path d="M0 0 C2.87305972 1.40460697 4.74510999 2.74510999 7 5 C7.125 8.125 7.125 8.125 7 11 C4.69 11 2.38 11 0 11 C-0.33 9.68 -0.66 8.36 -1 7 C-2.65 7 -4.3 7 -6 7 C-6 8.65 -6 10.3 -6 12 C-5.24074219 12.39832031 -4.48148438 12.79664063 -3.69921875 13.20703125 C-2.20841797 14.00173828 -2.20841797 14.00173828 -0.6875 14.8125 C0.79169922 15.59560547 0.79169922 15.59560547 2.30078125 16.39453125 C6.43858432 18.85565579 6.43858432 18.85565579 8 21 C8.62505936 24.37306809 8.51630458 27.61348607 8 31 C6.11484777 33.57637471 4.80665143 34.59667428 2 36 C-8.07810373 37.17602688 -8.07810373 37.17602688 -11.90234375 34.8359375 C-14.06235471 32.39418598 -14.96222944 30.34748914 -15.3125 27.125 C-15.209375 26.42375 -15.10625 25.7225 -15 25 C-12.69 25 -10.38 25 -8 25 C-7.34 26.65 -6.68 28.3 -6 30 C-4.35 30 -2.7 30 -1 30 C-0.25042843 26.52852158 -0.25042843 26.52852158 0 23 C-0.59167969 22.84144531 -1.18335938 22.68289062 -1.79296875 22.51953125 C-6.98577242 20.98625643 -10.85447446 19.66755403 -14 15 C-14.69358878 11.84732375 -14.72995548 9.147933 -14 6 C-9.71448494 0.58671782 -6.79811205 -0.46088895 0 0 Z " fill="#F7FBFD" transform="translate(50,151)"/>
<path d="M0 0 C7.26 0 14.52 0 22 0 C22 1.98 22 3.96 22 6 C19.69 6 17.38 6 15 6 C15 15.57 15 25.14 15 35 C12.36 35 9.72 35 7 35 C7 25.43 7 15.86 7 6 C4.69 6 2.38 6 0 6 C0 4.02 0 2.04 0 0 Z " fill="#F1F8FC" transform="translate(60,152)"/>
<path d="M0 0 C2.75329021 1.79562405 4.52627461 3.05254922 6 6 C6.38878631 11.15141854 5.92950877 13.78962376 3 18 C1.33655569 19.77239194 -0.3746197 21.50090907 -2.125 23.1875 C-5.49301768 26.27500163 -5.49301768 26.27500163 -8 30 C-1.07 30.495 -1.07 30.495 6 31 C6 32.32 6 33.64 6 35 C-0.27 35 -6.54 35 -13 35 C-13 27.92597739 -11.54690071 25.97798385 -7 21 C-5.06244589 19.23170349 -3.06000278 17.62883941 -1 16 C0.62651522 12.74696956 0.11453156 9.60774398 0 6 C-1.06645115 4.70366379 -1.06645115 4.70366379 -3.5625 4.9375 C-4.366875 4.958125 -5.17125 4.97875 -6 5 C-6.99 6.98 -7.98 8.96 -9 11 C-10.32 11 -11.64 11 -13 11 C-12.76683515 6.95847594 -12.5771041 4.66197236 -9.875 1.5625 C-6.22324854 -0.42214753 -4.10477533 -0.58639648 0 0 Z " fill="#F3FAFD" transform="translate(157,152)"/>
<path d="M0 0 C2.69990662 1.79993774 4.5418865 3.083773 6 6 C6.41527201 10.67181016 5.69993991 13.17508513 3 17 C3.66 17.495 4.32 17.99 5 18.5 C7.47218779 21.59023474 7.46862426 23.26310861 7.26171875 27.1015625 C6.93718376 29.45565213 6.40693552 31.07471982 5 33 C0.7736099 35.8175934 -3.03947725 35.9162749 -8 35 C-10.59711697 33.23028312 -11.37280147 31.82047745 -13 29 C-13 27.68 -13 26.36 -13 25 C-11.35 25 -9.7 25 -8 25 C-7.67 26.98 -7.34 28.96 -7 31 C-4.66705225 31.04241723 -2.33297433 31.04092937 0 31 C1.23267348 29.99163938 1.23267348 29.99163938 1.09765625 27.93359375 C1.08605469 27.10988281 1.07445312 26.28617188 1.0625 25.4375 C1.05347656 24.61121094 1.04445312 23.78492188 1.03515625 22.93359375 C1.02355469 22.29550781 1.01195312 21.65742188 1 21 C-1.31 20.34 -3.62 19.68 -6 19 C-6 17.68 -6 16.36 -6 15 C-4.02 14.34 -2.04 13.68 0 13 C0 10.36 0 7.72 0 5 C-1.98 5 -3.96 5 -6 5 C-6.66 6.65 -7.32 8.3 -8 10 C-9.32 10 -10.64 10 -12 10 C-12.375 7.8125 -12.375 7.8125 -12 5 C-8.24641415 0.97830087 -5.7077368 -1.09297088 0 0 Z " fill="#F1F9FD" transform="translate(133,152)"/>
</svg>
